<?xml version="1.0" encoding="UTF-8"?>
<svg width="24px" height="18px" viewBox="0 0 24 18" version="1.1" xmlns="http://www.w3.org/2000/svg" xmlns:xlink="http://www.w3.org/1999/xlink">
    <title>blackfish</title>
    <defs></defs>
    <g id="Page-1" stroke="none" stroke-width="1" fill="none" fill-rule="evenodd">
        <g id="media" fill="#000000" fill-rule="nonzero">
            <path d="M23.77,8.08 C23.0437293,7.62576812 22.9470443,7.6413205 22.0919461,7.59030176 C21.9455237,7.57833124 20.5264224,7.78610767 20.38,7.79807819 C20.1041922,6.88118075 20.0661635,5.59655082 19.28,5.05 C19.0780254,4.91461052 18.807933,4.94415188 18.64,5.12 C17.9379013,6.05819625 17.6754092,7.25399387 17.92,8.4 C17.9378678,8.5490235 17.8904731,8.69849921 17.79,8.81 C17.7035685,8.90664675 17.5796505,8.96131647 17.45,8.96 L17,8.96 L17,6.5 C17,6.22385763 16.7761424,6 16.5,6 L14,6 L14,0.5 C14,0.223857625 13.7761424,0 13.5,0 L10.5,0 C10.2238576,0 10,0.223857625 10,0.5 L10,3 L4.5,3 C4.22385763,3 4,3.22385763 4,3.5 L4,6 L1.5,6 C1.22385763,6 1,6.22385763 1,6.5 L1,9 L0.5,9 C0.223857625,9 3.38176876e-17,9.22385763 0,9.5 C0,17.17 5.59,18 8,18 C13.0935576,18.0150478 17.8100635,14.9375799 20.38,10.5398553 C21.8167147,10.3504021 23.1062794,9.9422777 23.93,8.75 C24.0635473,8.51968643 23.9932029,8.22511949 23.77,8.08 Z M16,9 L14,9 L14,7 L16,7 L16,9 Z M5,9 L5,7 L7,7 L7,9 L5,9 Z M8,9 L8,7 L10,7 L10,9 L8,9 Z M13,4 L13,6 L11,6 L11,4 L13,4 Z M11,9 L11,7 L13,7 L13,9 L11,9 Z M11,1 L13,1 L13,3 L11,3 L11,1 Z M10,6 L8,6 L8,4 L10,4 L10,6 Z M5,4 L7,4 L7,6 L5,6 L5,4 Z M2,7 L4,7 L4,9 L2,9 L2,7 Z M5,14 C4.44771525,14 4,13.5522847 4,13 C4,12.4477153 4.44771525,12 5,12 C5.55228475,12 6,12.4477153 6,13 C6,13.5522847 5.55228475,14 5,14 Z M4.5,13.5 C4.77614237,13.5 5,13.2761424 5,13 C5,12.7238576 4.77614237,12.5 4.5,12.5 C4.22385763,12.5 4,12.7238576 4,13 C4,13.2761424 4.22385763,13.5 4.5,13.5 Z" id="Shape"></path>
        </g>
    </g>
</svg>
